<?xml version="1.0" encoding="UTF-8" standalone="no"?><!DOCTYPE svg PUBLIC "-//W3C//DTD SVG 1.1//EN" "http://www.w3.org/Graphics/SVG/1.1/DTD/svg11.dtd"><svg width="100%" height="100%" viewBox="0 0 1459 375" version="1.1" xmlns="http://www.w3.org/2000/svg" xmlns:xlink="http://www.w3.org/1999/xlink" xml:space="preserve" xmlns:serif="http://www.serif.com/" style="fill-rule:evenodd;clip-rule:evenodd;stroke-miterlimit:10;"><g id="Camada-1" serif:id="Camada 1"><g><g><g><path d="M6.937,50.117l128.932,-0c21.486,-0 37.985,5.675 49.489,17.033c11.504,11.354 17.256,25.417 17.256,42.179c0,14.058 -4.104,26.117 -12.316,36.175c-5.471,6.704 -13.48,12.004 -24.02,15.9c16.014,4.108 27.796,11.167 35.348,21.171c7.553,10.004 11.325,22.575 11.325,37.717c-0,12.329 -2.683,23.412 -8.056,33.254c-5.374,9.842 -12.723,17.629 -22.048,23.362c-5.776,3.571 -14.492,6.163 -26.148,7.788c-15.511,2.162 -25.797,3.246 -30.866,3.246l-118.896,-0l-0,-237.825Zm69.482,93.279l29.952,-0c10.746,-0 18.221,-1.975 22.426,-5.921c4.206,-3.946 6.311,-9.654 6.311,-17.117c-0,-6.92 -2.105,-12.329 -6.311,-16.22c-4.205,-3.896 -11.527,-5.842 -21.969,-5.842l-30.409,-0l0,45.1Zm0,93.442l35.122,-0c11.86,-0 20.22,-2.242 25.086,-6.734c4.866,-4.487 7.298,-10.516 7.298,-18.087c0,-7.029 -2.405,-12.679 -7.22,-16.95c-4.815,-4.275 -13.254,-6.409 -25.316,-6.409l-34.97,0l0,48.18Z" style="fill:#e51e25;fill-rule:nonzero;"/></g><g><path d="M223.424,115.654l57.927,0l0,28.229c5.577,-12.22 11.329,-20.629 17.257,-25.225c5.932,-4.6 13.253,-6.895 21.969,-6.895c9.123,-0 19.108,3.029 29.952,9.083l-19.154,47.046c-7.299,-3.246 -13.078,-4.867 -17.335,-4.867c-8.106,0 -14.393,3.571 -18.853,10.708c-6.385,10.059 -9.579,28.875 -9.579,56.454l-0,57.755l-62.184,-0l0,-172.288Z" style="fill:#e51e25;fill-rule:nonzero;"/></g><g><path d="M400.685,171.463l-59.141,-6.655c2.229,-11.029 5.447,-19.708 9.653,-26.037c4.206,-6.325 10.262,-11.813 18.17,-16.463c5.674,-3.354 13.48,-5.95 23.415,-7.787c9.93,-1.842 20.677,-2.758 32.232,-2.758c18.549,-0 33.446,1.108 44.697,3.325c11.254,2.216 20.63,6.841 28.128,13.87c5.271,4.867 9.426,11.763 12.468,20.684c3.042,8.921 4.562,17.437 4.562,25.55l-0,76.083c-0,8.113 0.48,14.467 1.444,19.063c0.961,4.595 3.066,10.462 6.311,17.604l-58.08,-0c-2.331,-4.438 -3.854,-7.817 -4.561,-10.142c-0.71,-2.325 -1.421,-5.975 -2.128,-10.95c-8.111,8.329 -16.167,14.275 -24.176,17.846c-10.946,4.758 -23.668,7.137 -38.164,7.137c-19.256,0 -33.876,-4.758 -43.861,-14.275c-9.985,-9.516 -14.976,-21.254 -14.976,-35.204c-0,-13.087 3.596,-23.846 10.793,-32.283c7.197,-8.438 20.475,-14.709 39.836,-18.817c23.211,-4.975 38.261,-8.462 45.158,-10.466c6.892,-2.001 14.186,-4.621 21.891,-7.867c0,-8.113 -1.57,-13.788 -4.713,-17.034c-3.144,-3.245 -8.666,-4.866 -16.573,-4.866c-10.134,-0 -17.737,1.729 -22.806,5.191c-3.952,2.705 -7.146,7.788 -9.579,15.251Zm53.671,34.716c-8.513,3.242 -17.381,6.108 -26.605,8.596c-12.57,3.571 -20.529,7.083 -23.871,10.546c-3.448,3.566 -5.171,7.625 -5.171,12.166c0,5.192 1.699,9.438 5.093,12.734c3.397,3.3 8.388,4.95 14.975,4.95c6.893,-0 13.305,-1.788 19.237,-5.354c5.927,-3.571 10.133,-7.921 12.617,-13.059c2.483,-5.137 3.725,-11.816 3.725,-20.037l0,-10.542Z" style="fill:#e51e25;fill-rule:nonzero;"/></g></g><g><g><path d="M960.349,173.629l-59.003,-6.65c2.224,-11.033 5.434,-19.712 9.634,-26.037c4.195,-6.329 10.238,-11.817 18.122,-16.467c5.665,-3.354 13.448,-5.95 23.359,-7.787c9.91,-1.838 20.627,-2.759 32.154,-2.759c18.505,0 33.37,1.109 44.594,3.325c11.223,2.221 20.576,6.842 28.06,13.871c5.255,4.867 9.404,11.763 12.435,20.683c3.035,8.925 4.55,17.442 4.55,25.555l-0,76.083c-0,8.112 0.483,14.462 1.441,19.062c0.963,4.596 3.058,10.463 6.296,17.6l-57.94,0c-2.326,-4.433 -3.841,-7.812 -4.55,-10.137c-0.709,-2.325 -1.414,-5.975 -2.123,-10.95c-8.088,8.325 -16.128,14.275 -24.118,17.841c-10.92,4.759 -23.608,7.138 -38.068,7.138c-19.214,0 -33.799,-4.758 -43.76,-14.275c-9.957,-9.517 -14.94,-21.25 -14.94,-35.204c-0,-13.083 3.592,-23.846 10.771,-32.279c7.18,-8.438 20.425,-14.713 39.74,-18.821c23.152,-4.975 38.169,-8.463 45.045,-10.463c6.876,-2 14.157,-4.625 21.843,-7.866c0,-8.113 -1.57,-13.792 -4.702,-17.038c-3.136,-3.241 -8.648,-4.867 -16.533,-4.867c-10.113,0 -17.698,1.734 -22.751,5.192c-3.946,2.704 -7.129,7.788 -9.556,15.25Zm53.542,34.717c-8.496,3.246 -17.343,6.112 -26.545,8.6c-12.54,3.567 -20.475,7.083 -23.814,10.542c-3.436,3.57 -5.154,7.625 -5.154,12.166c0,5.192 1.691,9.438 5.08,12.738c3.385,3.296 8.368,4.946 14.94,4.946c6.876,-0 13.272,-1.784 19.186,-5.355c5.917,-3.566 10.113,-7.921 12.591,-13.058c2.477,-5.138 3.716,-11.813 3.716,-20.033l0,-10.546Z" style="fill:#00f;fill-rule:nonzero;"/></g><g><path d="M1209.38,222.783l58.7,7.138c-3.238,13.087 -8.543,24.416 -15.926,33.987c-7.382,9.571 -16.809,17.009 -28.286,22.309c-11.476,5.295 -26.066,7.945 -43.76,7.945c-17.09,0 -31.321,-1.7 -42.696,-5.108c-11.375,-3.408 -21.157,-8.921 -29.35,-16.546c-8.188,-7.625 -14.608,-16.575 -19.26,-26.85c-4.651,-10.275 -6.977,-23.9 -6.977,-40.879c0,-17.737 2.828,-32.5 8.493,-44.292c4.145,-8.65 9.809,-16.408 16.989,-23.279c7.175,-6.866 14.558,-11.975 22.142,-15.329c12.034,-5.3 27.453,-7.95 46.261,-7.95c26.292,0 46.335,5.029 60.137,15.088c13.802,10.058 23.487,24.766 29.046,44.125l-58.092,8.275c-1.819,-7.355 -5.13,-12.896 -9.934,-16.63c-4.803,-3.729 -11.246,-5.595 -19.338,-5.595c-10.21,-0 -18.477,3.92 -24.799,11.762c-6.319,7.842 -9.478,19.708 -9.478,35.608c-0,14.167 3.136,24.93 9.404,32.284c6.268,7.354 14.258,11.029 23.966,11.029c8.087,-0 14.889,-2.217 20.397,-6.65c5.513,-4.433 9.634,-11.246 12.361,-20.442Z" style="fill:#00f;fill-rule:nonzero;"/></g><g><path d="M1266.85,204.454c0,-26.283 8.29,-47.937 24.874,-64.975c16.584,-17.033 38.98,-25.55 67.192,-25.55c32.256,0 56.627,10.004 73.109,30.013c13.246,16.116 19.868,35.962 19.868,59.537c0,26.496 -8.216,48.209 -24.648,65.134c-16.431,16.925 -39.155,25.387 -68.177,25.387c-25.887,0 -46.818,-7.029 -62.794,-21.087c-19.615,-17.413 -29.424,-40.234 -29.424,-68.459Zm61.882,-0.162c0,15.358 2.907,26.712 8.723,34.066c5.812,7.355 13.12,11.03 21.917,11.03c8.897,-0 16.202,-3.621 21.917,-10.867c5.714,-7.246 8.57,-18.871 8.57,-34.879c-0,-14.925 -2.883,-26.038 -8.644,-33.338c-5.766,-7.3 -12.895,-10.95 -21.388,-10.95c-8.998,0 -16.431,3.704 -22.298,11.113c-5.863,7.408 -8.797,18.683 -8.797,33.825Z" style="fill:#00f;fill-rule:nonzero;"/></g></g></g><g><path d="M560.638,362.231c-0,-0 15.808,0.359 45.304,0.359c20.879,0 37.375,-3.877 49.487,-11.619c12.113,-7.748 20.984,-18.172 26.609,-31.266c5.625,-13.094 8.437,-26.565 8.437,-40.413c0,-13.692 -2.663,-26.263 -7.979,-37.697c-5.325,-11.439 -13.004,-20.238 -23.038,-26.414c-10.033,-6.169 -25.337,-10.986 -45.916,-14.446c-13.584,-2.408 -22.4,-5.119 -26.454,-8.125c-4.055,-3.007 -6.08,-7.441 -6.08,-13.309c0,-5.264 1.596,-9.739 4.788,-13.424c3.192,-3.686 8.287,-5.531 15.283,-5.531c6.888,-0 12.767,2.414 17.634,7.231c3.55,3.616 6.079,9.264 7.604,16.948l58.687,-8.584c-4.058,-15.671 -9.15,-28.097 -15.283,-37.291c-6.133,-9.187 -13.784,-15.966 -22.958,-20.337c-9.171,-4.364 -23.388,-6.552 -42.646,-6.552c-18.246,-0 -32.792,2.826 -43.638,8.468c-10.846,5.641 -19.358,14.185 -25.542,25.618c-6.183,11.44 -9.274,25.062 -9.274,40.866c-0,14.446 2.862,27.313 8.591,38.602c5.725,11.283 23.167,24.383 32.246,27.54c15.488,5.386 10.233,2.832 31.721,8.398c14.391,3.761 25.204,10.482 28.55,13.042c4.662,3.61 6.996,8.723 6.996,15.34c-0,5.873 -1.779,10.76 -5.325,14.666c-4.559,5.27 -12.671,5.386 -20.984,5.386c-7.6,0 -47.15,-0.772 -47.15,-0.772l0.33,53.316Z" style="fill:#e51e25;fill-rule:nonzero;"/></g><g><path d="M718.596,270.805c14.562,15.571 40.75,23.358 78.567,23.358c21.537,0 39.383,-3.325 53.541,-9.975c14.154,-6.654 25.179,-16.412 33.063,-29.283c7.891,-12.867 11.833,-26.929 11.833,-42.175c0,-12.983 -2.958,-24.717 -8.875,-35.208c-5.913,-10.488 -15.367,-19.275 -28.363,-26.359c-12.995,-7.083 -34.504,-14.087 -64.537,-21.008c-12.133,-2.704 -19.821,-5.625 -23.054,-8.762c-3.338,-3.025 -5.004,-6.434 -5.004,-10.221c-0,-5.192 2.02,-9.596 6.066,-13.221c4.046,-3.621 10.063,-5.433 18.05,-5.433c9.709,-0 36.304,-1.017 43.659,-1.034c384,-0.896 586.233,-1.012 586.233,-1.012l0.258,-44.521c0,-0 -594.912,2.279 -623.325,2.279c-23.158,0 -41.383,3.108 -54.675,9.325c-13.3,6.221 -23.262,14.763 -29.883,25.633c-6.625,10.871 -9.938,22.417 -9.938,34.638c0,18.6 6.471,33.904 19.417,45.908c12.842,12.004 34.325,21.634 64.463,28.875c18.404,4.325 30.129,8.925 35.187,13.792c5.054,4.867 7.583,10.379 7.583,16.546c0,6.487 -2.654,12.191 -7.962,17.112c-5.308,4.925 -12.871,7.388 -22.675,7.388c-13.146,-0 -23.258,-4.817 -30.333,-14.442c-4.35,-5.946 -7.234,-14.6 -8.65,-25.958l-65.371,4.383c1.921,24.008 10.162,43.8 24.725,59.375Z" style="fill:#00f;fill-rule:nonzero;stroke:#00f;stroke-width:7.96px;"/></g><g><g><g transform="matrix(0.938414,0,0,1,52.504,0)"><text x="852.532px" y="87.036px" style="font-family:'AvenirNextCondensed-Regular', 'Avenir Next Condensed', sans-serif;font-stretch:condensed;font-size:50px;fill:#fff;">E</text></g><g transform="matrix(0.938414,0,0,1,55.6913,0)"><text x="904.286px" y="87.036px" style="font-family:'AvenirNextCondensed-Regular', 'Avenir Next Condensed', sans-serif;font-stretch:condensed;font-size:50px;fill:#fff;">M<tspan x="974.236px 1032.79px 1090.24px 1142.34px 1199.79px 1260.79px 1315.94px 1378.24px " y="87.036px 87.036px 87.036px 87.036px 87.036px 87.036px 87.036px 87.036px ">BALAGENS</tspan></text></g></g></g><g><rect x="8.225" y="309.056" width="553.742" height="53.055" style="fill:#e51e25;"/></g><g><g><text x="13.558px" y="354.565px" style="font-family:'AvenirNextCondensed-Regular', 'Avenir Next Condensed', sans-serif;font-stretch:condensed;font-size:50.002px;fill:#fff;">E</text><text x="66.96px" y="354.565px" style="font-family:'AvenirNextCondensed-Regular', 'Avenir Next Condensed', sans-serif;font-stretch:condensed;font-size:50.002px;fill:#fff;">S<tspan x="121.159px 176.661px 230.06px 286.509px 330.608px 386.309px 436.661px 480.76px 534.958px 584.558px " y="354.565px 354.565px 354.565px 354.565px 354.565px 354.565px 354.565px 354.565px 354.565px 354.565px ">PECIALISTA</tspan></text></g></g></g></svg>